<svg xmlns="http://www.w3.org/2000/svg" width="346.676" height="103.591" viewBox="0 0 346.676 103.591">
    <defs>
        <style>
            .cls-1{fill:#fff}
        </style>
    </defs>
    <g id="Logo_logo_white">
        <path id="Path_1" d="M87.852 84.445H100.9v1.526H84.8V56.9h15.718v1.526H87.852v11.9h9.919l1.984 1.45h-11.9z" class="cls-1" data-name="Path 1" transform="translate(-20.138 -13.664)"/>
        <path id="Path_2" d="M116.467 85.995V58.526H109.6V57h16.863v1.526H119.6v27.469z" class="cls-1" data-name="Path 2" transform="translate(-26.015 -13.688)"/>
        <path id="Path_3" d="M137.779 61.044v24.951H136.1V57h2.518l16.329 21.746v-21.67h1.679v28.995z" class="cls-1" data-name="Path 3" transform="translate(-32.295 -13.688)"/>
        <path id="Path_4" d="M392.279 61.5v24.495H390.6V57h2.518l16.329 21.975V57h1.679v28.995z" class="cls-1" data-name="Path 4" transform="translate(-92.605 -13.688)"/>
        <path id="Path_5" d="M172.165 77.22l-3.357 8.775H166.9L178.269 57l11.445 28.995h-3.052l-3.51-8.775zm.534-1.3h10l-4.96-13.048z" class="cls-1" data-name="Path 5" transform="translate(-39.594 -13.688)"/>
        <path id="Path_6" d="M202.079 60.281v25.714H200.4V57h3.586l9.08 23.043L222.146 57h3.354v28.995h-2.9v-26.4l-10.3 26.4z" class="cls-1" data-name="Path 6" transform="translate(-47.532 -13.688)"/>
        <path id="Path_7" d="M260.527 85.995H251.6V57h6.257c3.357 0 5.952.687 7.859 2.06a6.625 6.625 0 0 1 2.823 5.723 6.391 6.391 0 0 1-1.373 4.12 5.191 5.191 0 0 1-3.662 1.984 9.313 9.313 0 0 1 5.189 2.594 7.092 7.092 0 0 1 1.755 4.883 6.547 6.547 0 0 1-2.518 5.646c-1.68 1.374-4.122 1.985-7.403 1.985zM254.652 58.6v11.753h4.12a11.226 11.226 0 0 0 3.2-.305 3.538 3.538 0 0 0 1.755-.916 4.975 4.975 0 0 0 1.3-1.908 6.72 6.72 0 0 0 .458-2.518 5.569 5.569 0 0 0-1.908-4.578c-1.3-1.068-3.128-1.526-5.57-1.526zm0 13.124v12.745h4.96q3.891 0 5.723-1.373c1.221-.916 1.755-2.442 1.755-4.5 0-2.365-.687-4.12-2.06-5.189-1.373-1.145-3.51-1.679-6.409-1.679h-3.968z" class="cls-1" data-name="Path 7" transform="translate(-59.666 -13.688)"/>
        <path id="Path_8" d="M291.7 85.948a12.415 12.415 0 0 1-5.036-1.068 11.919 11.919 0 0 1-4.273-3.052 14.392 14.392 0 0 1-2.9-4.731 17 17 0 0 1 0-11.445 14.6 14.6 0 0 1 2.976-4.731 12.927 12.927 0 0 1 4.273-3.052 12.4 12.4 0 0 1 10.072 0 11.92 11.92 0 0 1 4.273 3.052 14.6 14.6 0 0 1 2.976 4.731 17 17 0 0 1 0 11.445 14.392 14.392 0 0 1-2.9 4.731 13.4 13.4 0 0 1-4.273 3.052 12.405 12.405 0 0 1-5.188 1.068zm10-14.5a16.014 16.014 0 0 0-2.747-9.69 8.623 8.623 0 0 0-7.172-3.663 8.526 8.526 0 0 0-7.181 3.665c-1.831 2.442-2.747 5.646-2.747 9.69q0 5.952 2.747 9.614a8.624 8.624 0 0 0 7.172 3.663 8.526 8.526 0 0 0 7.172-3.663c1.836-2.364 2.756-5.646 2.756-9.614z" class="cls-1" data-name="Path 8" transform="translate(-66.04 -13.641)"/>
        <path id="Path_9" d="M329.7 85.948a12.415 12.415 0 0 1-5.036-1.068 11.92 11.92 0 0 1-4.273-3.052 14.392 14.392 0 0 1-2.9-4.731 17 17 0 0 1 0-11.445 14.6 14.6 0 0 1 2.976-4.731 12.926 12.926 0 0 1 4.273-3.052 12.4 12.4 0 0 1 10.072 0 11.92 11.92 0 0 1 4.273 3.052 14.6 14.6 0 0 1 2.976 4.731 17 17 0 0 1 0 11.445 14.393 14.393 0 0 1-2.9 4.731 13.4 13.4 0 0 1-4.273 3.052 12.167 12.167 0 0 1-5.188 1.068zm10.072-14.5a16.014 16.014 0 0 0-2.747-9.69 8.624 8.624 0 0 0-7.172-3.663 8.526 8.526 0 0 0-7.172 3.663c-1.831 2.442-2.747 5.646-2.747 9.69q0 5.952 2.747 9.614a8.623 8.623 0 0 0 7.172 3.663 8.527 8.527 0 0 0 7.172-3.663c1.832-2.362 2.747-5.644 2.747-9.612z" class="cls-1" data-name="Path 9" transform="translate(-75.045 -13.641)"/>
        <path id="Path_10" d="M357.352 85.995H354.3V57h3.052zm11.369 0l-10.53-13.963L369.1 57h1.908l-9.843 13.963 11.295 15.032z" class="cls-1" data-name="Path 10" transform="translate(-84.003 -13.688)"/>
        <path id="Path_11" d="M78.823 85.995H76V57h2.823z" class="cls-1" data-name="Path 11" transform="translate(-18.053 -13.688)"/>
        <path id="Path_12" d="M384.323 85.995H381.5V57h2.823z" class="cls-1" data-name="Path 12" transform="translate(-90.449 -13.688)"/>
        <path id="Path_13" d="M446.983 70.429v11.14a13.53 13.53 0 0 1-4.583 3.281 13.031 13.031 0 0 1-5.494 1.221A14.387 14.387 0 0 1 431.417 85a12.746 12.746 0 0 1-4.5-3.052 13.327 13.327 0 0 1-2.9-4.654 18.523 18.523 0 0 1-.916-6.028 14.912 14.912 0 0 1 .992-5.494 12.661 12.661 0 0 1 2.747-4.578 11.754 11.754 0 0 1 4.349-3.128A14.287 14.287 0 0 1 436.605 57a11.873 11.873 0 0 1 6.1 1.526 9.994 9.994 0 0 1 3.968 4.5l-1.373.763a9.516 9.516 0 0 0-3.281-4.12 8.54 8.54 0 0 0-4.879-1.369 9.387 9.387 0 0 0-7.707 3.51 14.439 14.439 0 0 0-2.9 9.309c0 4.12.992 7.478 2.976 10a9.474 9.474 0 0 0 7.783 3.815 8.992 8.992 0 0 0 4.044-.916 7.784 7.784 0 0 0 2.976-2.442v-7.484z" class="cls-1" data-name="Path 13" transform="translate(-100.307 -13.688)"/>
        <path id="Path_14" d="M55.1 72.543a23.867 23.867 0 0 1-5.189-.229 5.435 5.435 0 0 1-3.281-2.136 22.149 22.149 0 0 1-2.365-4.12c-3.815-9.156-7.4-18.313-11.293-27.393-1.984-4.578-4.273-9.08-6.638-13.506a51.01 51.01 0 0 0-12.815-15.107 94.645 94.645 0 0 0-11.6-8.317C-3.039-1.394 2.607.59 10.467 5.7a123.647 123.647 0 0 1 16.405 12.44 57.129 57.129 0 0 1 13.047 18.236c2.671 5.8 5.036 11.751 7.478 17.7 2.365 5.801 6.715 16.102 7.703 18.467z" class="cls-1" data-name="Path 14" transform="translate(-.056 -.236)"/>
        <path id="Path_15" d="M63.609 100.562s-.61.153-1.831.534c-.61.153-1.373.382-2.213.61-.916.153-1.908.305-3.128.458-.305.076-.61.076-.916.153h-.992c-.61 0-1.3.076-1.984.076a24.964 24.964 0 0 1-4.654-.229 16.4 16.4 0 0 1-2.594-.382c-.839-.153-1.831-.305-2.747-.534a44.753 44.753 0 0 1-5.65-1.907 39.94 39.94 0 0 1-11.445-7.249 41.5 41.5 0 0 1-13.502-28.155L11.8 61.8l.076-2.136.076-1.984c.076-.687.153-1.45.305-2.213l.305-2.213a17.482 17.482 0 0 1 .534-2.136l.534-2.136.687-2.06a42.877 42.877 0 0 1 9-14.574 41.959 41.959 0 0 1 13.51-9.538 41.07 41.07 0 0 1 14.955-3.51h3.739c1.145.076 2.136.153 3.357.305a51.029 51.029 0 0 1 6.486 1.373 38.6 38.6 0 0 1 10.225 4.807 33.636 33.636 0 0 1 6.562 5.57 29.666 29.666 0 0 1 3.434 4.273 43.254 43.254 0 0 0 1.068 1.6l-.382.305a17.414 17.414 0 0 0-1.221-1.45 56.127 56.127 0 0 0-3.739-3.739 33.992 33.992 0 0 0-6.711-4.727 39.553 39.553 0 0 0-9.919-3.891 36.814 36.814 0 0 0-6.028-.992c-1.068-.153-2.136-.076-3.2-.153-1.068.076-2.213.076-3.281.153a39.1 39.1 0 0 0-25.493 12.513 36.429 36.429 0 0 0-8.088 13.124L17.9 50.2l-.458 1.908a13.954 13.954 0 0 0-.458 1.908l-.305 1.908c-.076.61-.229 1.3-.305 1.908l-.074 1.985-.076 1.908.076 1.908a38.56 38.56 0 0 0 3.51 14.5 40.467 40.467 0 0 0 8.012 11.445 38.211 38.211 0 0 0 10.225 7.249 41.479 41.479 0 0 0 5.189 2.136c.839.305 1.679.458 2.518.687a14.851 14.851 0 0 0 2.365.534 33.123 33.123 0 0 0 4.426.534 21.636 21.636 0 0 0 3.815.076c1.145-.076 2.136-.076 3.052-.153.916-.153 1.6-.229 2.213-.382a17.263 17.263 0 0 0 1.831-.305z" class="cls-1" data-name="Path 15" transform="translate(-2.839 -4.754)"/>
        <g id="Group_1" data-name="Group 1" transform="translate(192.24 80.853)">
            <path id="Path_16" d="M262.606 125.792a.688.688 0 0 1-.076.382c-.076.076-.076.153-.153.229s-.153.076-.229.153h-.534a.572.572 0 0 1-.382-.076 1.016 1.016 0 0 1-.381-.229c-.153-.076-.229-.229-.382-.382a4.256 4.256 0 0 1-.382-.61l-5.265-9.309c-.229-.458-.534-.916-.763-1.373s-.534-.916-.763-1.373v13.277a.266.266 0 0 1-.153.076c-.076 0-.153.076-.229.076h-.61a.28.28 0 0 1-.229-.076.075.075 0 0 1-.076-.076v-14.118c0-.305.076-.458.229-.534a1.084 1.084 0 0 1 .458-.153h.61a.968.968 0 0 1 .458.076.4.4 0 0 1 .305.153c.076.076.229.153.305.305a3.313 3.313 0 0 1 .305.534l4.044 7.1c.229.458.458.839.687 1.3.229.382.458.839.687 1.221a8.349 8.349 0 0 1 .61 1.145c.229.382.382.763.61 1.145v-12.9a.075.075 0 0 1 .076-.076c.076 0 .153-.076.229-.076h.61a.28.28 0 0 1 .229.076c.076 0 .076.076.153.076a.266.266 0 0 1 .076.153v13.887z" class="cls-1" data-name="Path 16" transform="translate(-252 -107.48)"/>
            <path id="Path_17" d="M272.655 112.316a1.013 1.013 0 0 1-.229.763.932.932 0 0 1-.687.229 1.523 1.523 0 0 1-.687-.153c-.153-.153-.153-.382-.153-.763a1.013 1.013 0 0 1 .229-.763 1.145 1.145 0 0 1 1.373 0c.078 0 .154.305.154.687zm-.229 13.887v.153l-.076.076c-.076 0-.153.076-.229.076h-.61a.28.28 0 0 1-.229-.076.075.075 0 0 1-.076-.076v-10.683l.076-.076c.076 0 .153-.076.229-.076h.61a.28.28 0 0 1 .229.076.075.075 0 0 1 .076.076V126.2z" class="cls-1" data-name="Path 17" transform="translate(-256.479 -107.432)"/>
            <path id="Path_18" d="M285.933 119.248c0 .305-.076.458-.229.534a1.084 1.084 0 0 1-.458.153h-7.1a12.525 12.525 0 0 0 .153 1.755 3.771 3.771 0 0 0 .61 1.373 2.5 2.5 0 0 0 1.144.839 4.021 4.021 0 0 0 1.755.305 6.72 6.72 0 0 0 1.3-.153 3.779 3.779 0 0 0 .992-.305 2.99 2.99 0 0 0 .687-.305 1.289 1.289 0 0 1 .381-.153h.153l.076.076c0 .076.076.076.076.229v.61c0 .076 0 .076-.076.153a.267.267 0 0 0-.076.153 3.96 3.96 0 0 0-.381.229 7.909 7.909 0 0 1-.763.305q-.458.114-1.145.229a8.292 8.292 0 0 1-1.373.076 5.938 5.938 0 0 1-2.136-.382A3.687 3.687 0 0 1 278 123.9a4.4 4.4 0 0 1-.992-1.755 7.919 7.919 0 0 1-.305-2.442 7.418 7.418 0 0 1 .305-2.365 4.4 4.4 0 0 1 .992-1.755 4.719 4.719 0 0 1 1.526-1.145 5.4 5.4 0 0 1 1.984-.382 5.1 5.1 0 0 1 1.984.382 3.73 3.73 0 0 1 1.373 1.068 3.605 3.605 0 0 1 .763 1.526 7.526 7.526 0 0 1 .229 1.831v.382zm-6.638-6.715c-.076.076-.153.076-.229.153a.28.28 0 0 1-.229.076c-.076 0-.153.076-.229.076h-.308a.73.73 0 0 1-.534-.153c-.076-.076 0-.229.153-.382l2.289-2.06c.076-.076.229-.153.305-.229a1.907 1.907 0 0 1 1.068 0c.153.076.229.153.382.229l2.289 2.06c.153.153.229.305.153.382a.73.73 0 0 1-.534.153c-.229 0-.458 0-.534-.076-.153 0-.229-.153-.381-.229l-1.908-1.679zm5.265 6.257a3.9 3.9 0 0 0-.763-2.594 2.879 2.879 0 0 0-2.289-.916 2.614 2.614 0 0 0-1.373.305 3.423 3.423 0 0 0-.992.763 2.753 2.753 0 0 0-.61 1.145 3.877 3.877 0 0 0-.229 1.3zm-1.679-10c.153.153.229.229.153.305 0 .076-.229.076-.534.076h-.305a.28.28 0 0 1-.229-.076c-.076 0-.153-.076-.229-.076-.076-.076-.153-.076-.229-.153l-2.747-2.213-.153-.153v-.153c0-.076.076-.076.229-.076a2.7 2.7 0 0 1 .458-.076h.458a.459.459 0 0 1 .305.076c.076 0 .153.076.229.076.076.076.153.076.229.153z" class="cls-1" data-name="Path 18" transform="translate(-257.853 -106.2)"/>
            <path id="Path_19" d="M307.792 127.388v.153l-.076.076c-.076 0-.153.076-.229.076h-.61a.28.28 0 0 1-.229-.076.075.075 0 0 1-.076-.076v-6.562a8.409 8.409 0 0 0-.153-1.373 4.415 4.415 0 0 0-.382-1.068 1.97 1.97 0 0 0-.687-.687 2.112 2.112 0 0 0-.992-.229 2.281 2.281 0 0 0-1.45.534 8.56 8.56 0 0 0-1.6 1.679v7.63l-.076.076c-.076 0-.153.076-.229.076h-.61a.28.28 0 0 1-.229-.076.075.075 0 0 1-.076-.076V120.9a8.406 8.406 0 0 0-.153-1.373 4.413 4.413 0 0 0-.382-1.068 1.97 1.97 0 0 0-.687-.687 2.112 2.112 0 0 0-.992-.229 2.281 2.281 0 0 0-1.45.534 8.561 8.561 0 0 0-1.6 1.679v7.63l-.076.076c-.076 0-.153.076-.229.076h-.61a.28.28 0 0 1-.229-.076.075.075 0 0 1-.076-.076v-10.681l.076-.076c.076 0 .153-.076.229-.076h.61a.28.28 0 0 1 .229.076.075.075 0 0 1 .076.076v1.6a6.836 6.836 0 0 1 1.679-1.45 3.2 3.2 0 0 1 1.6-.458 4.617 4.617 0 0 1 1.144.153 2.578 2.578 0 0 1 .916.458 2.914 2.914 0 0 1 .687.687 8.324 8.324 0 0 1 .458.839 12.066 12.066 0 0 1 .992-.992 7.152 7.152 0 0 1 .916-.687 4.085 4.085 0 0 1 .839-.382 2.861 2.861 0 0 1 .763-.076 3.637 3.637 0 0 1 1.679.382 2.538 2.538 0 0 1 1.068.916 3.769 3.769 0 0 1 .61 1.373 5.985 5.985 0 0 1 .153 1.679v6.638z" class="cls-1" data-name="Path 19" transform="translate(-261.858 -108.617)"/>
            <path id="Path_20" d="M331.867 115.52a.583.583 0 0 1 .382.153.571.571 0 0 1 .076.382v10.3l-.076.076c-.076 0-.153.076-.229.076h-.61a.28.28 0 0 1-.229-.076.075.075 0 0 1-.076-.076v-9.614h-5.723V123a4.169 4.169 0 0 0 .305 1.831 1.611 1.611 0 0 0 1.755.534.583.583 0 0 0 .382-.153c.153-.076.229-.076.305-.153.076 0 .153-.076.229-.076h.076l.076.076c0 .076 0 .076.076.153v.229a.572.572 0 0 1-.076.382c0 .076-.076.153-.153.229s-.153.076-.229.153-.229.076-.382.153c-.153 0-.305.076-.458.076h-.458a3.288 3.288 0 0 1-1.3-.229 2.745 2.745 0 0 1-.916-.61 3.5 3.5 0 0 1-.534-1.068 8.58 8.58 0 0 1-.153-1.526v-6.486h-1.526c-.076 0-.229-.076-.229-.153-.076-.076-.076-.229-.076-.458v-.229c0-.076 0-.153.076-.153a.075.075 0 0 1 .076-.076h1.679v-2.671l.076-.076c.076 0 .153-.076.229-.076h.61a.28.28 0 0 1 .229.076.075.075 0 0 1 .076.076v2.671h6.715zm.687-3.2a1.013 1.013 0 0 1-.229.763.933.933 0 0 1-.687.229 1.523 1.523 0 0 1-.687-.153c-.153-.153-.153-.382-.153-.763a1.013 1.013 0 0 1 .229-.763 1.145 1.145 0 0 1 1.373 0c.077-.004.153.301.153.683z" class="cls-1" data-name="Path 20" transform="translate(-268.612 -107.432)"/>
            <path id="Path_21" d="M348.864 127.411v.153l-.076.076c-.076 0-.153.076-.229.076h-.61a.28.28 0 0 1-.229-.076.075.075 0 0 1-.076-.076v-6.333a9.528 9.528 0 0 0-.153-1.6 2.675 2.675 0 0 0-.458-1.068 2.163 2.163 0 0 0-.763-.687 2.437 2.437 0 0 0-1.068-.229 2.688 2.688 0 0 0-1.6.534 8.655 8.655 0 0 0-1.679 1.679v7.63l-.076.076c-.076 0-.153.076-.229.076h-.61a.28.28 0 0 1-.229-.076.075.075 0 0 1-.076-.076v-10.685l.076-.076c.076 0 .153-.076.229-.076h.61a.28.28 0 0 1 .229.076.075.075 0 0 1 .076.076v1.6a7.013 7.013 0 0 1 1.755-1.45 3.713 3.713 0 0 1 1.679-.458 4.239 4.239 0 0 1 1.755.382 3.379 3.379 0 0 1 1.145.916 3.771 3.771 0 0 1 .61 1.373 7.145 7.145 0 0 1 .153 1.908v6.333z" class="cls-1" data-name="Path 21" transform="translate(-273.02 -108.641)"/>
            <path id="Path_22" d="M370.035 125.909v.382c0 .076 0 .076-.076.153 0 .076-.076.076-.153.229a1.9 1.9 0 0 1-.534.382 2.386 2.386 0 0 1-.763.382c-.305.076-.61.229-.916.305a4.691 4.691 0 0 1-1.068.076 5 5 0 0 1-1.908-.382 3.73 3.73 0 0 1-1.373-1.068 4.183 4.183 0 0 1-.839-1.755 7.418 7.418 0 0 1-.305-2.365 8.463 8.463 0 0 1 .382-2.594 5.552 5.552 0 0 1 .992-1.755 3.79 3.79 0 0 1 1.45-.992 4.617 4.617 0 0 1 1.831-.305 4.031 4.031 0 0 1 .992.076c.305.076.61.153.839.229a2 2 0 0 1 .687.381c.229.153.381.229.458.382l.229.229c0 .076.076.076.076.153a.28.28 0 0 0 .076.229v.229c0 .229 0 .382-.076.458s-.153.153-.229.153a.7.7 0 0 1-.381-.229 4.237 4.237 0 0 0-.61-.458 5.083 5.083 0 0 0-.916-.458 3.164 3.164 0 0 0-1.221-.229 2.626 2.626 0 0 0-2.289 1.145 5.883 5.883 0 0 0-.839 3.357 6.87 6.87 0 0 0 .229 1.908 5.726 5.726 0 0 0 .61 1.373 3.425 3.425 0 0 0 .992.839 3.6 3.6 0 0 0 1.3.305 3.163 3.163 0 0 0 1.221-.229 5.08 5.08 0 0 0 .916-.458l.687-.458a.7.7 0 0 1 .381-.229c.076 0 .076 0 .153.076a.266.266 0 0 1 .076.153c0 .076.076.153.076.229-.157-.078-.157-.002-.157.151z" class="cls-1" data-name="Path 22" transform="translate(-278.091 -108.665)"/>
            <path id="Path_23" d="M384.317 125.8v.153l-.076.076c-.076 0-.153.076-.229.076h-.61a.28.28 0 0 1-.229-.076.075.075 0 0 1-.076-.076v-1.6a5.889 5.889 0 0 1-1.755 1.45 3.479 3.479 0 0 1-1.679.458 3.309 3.309 0 0 1-1.755-.382 3.377 3.377 0 0 1-1.145-.916 3.771 3.771 0 0 1-.61-1.373 7.151 7.151 0 0 1-.152-1.908v-6.412l.076-.076c.076 0 .153-.076.229-.076h.61a.28.28 0 0 1 .229.076.075.075 0 0 1 .076.076v6.33a9.527 9.527 0 0 0 .153 1.6 2.677 2.677 0 0 0 .458 1.068 2.165 2.165 0 0 0 .763.687 2.437 2.437 0 0 0 1.068.229 2.688 2.688 0 0 0 1.6-.534 8.651 8.651 0 0 0 1.679-1.679v-7.63l.076-.076c.076 0 .153-.076.229-.076h.61a.28.28 0 0 1 .229.076.075.075 0 0 1 .076.076V125.8zm-3.891-12.208c-.076 0-.153 0-.153-.076l-.153-.153c-.076-.076-.076-.153-.153-.229a.266.266 0 0 0-.076-.153c0-.076 0-.076.076-.153l.458-.229a1.339 1.339 0 0 0 .381-.305.649.649 0 0 0 .229-.382.967.967 0 0 0 .076-.458.744.744 0 0 0-.305-.687 1.371 1.371 0 0 0-.839-.229 1.488 1.488 0 0 0-.61.076c-.153.076-.305.076-.458.153s-.229.076-.305.153a.266.266 0 0 0-.153.076c-.076 0-.076 0-.153-.076v-.687a.266.266 0 0 1 .076-.153 1.175 1.175 0 0 1 .534-.229 4.781 4.781 0 0 1 1.221-.153 2.234 2.234 0 0 1 1.6.458 1.572 1.572 0 0 1 .534 1.3 2.112 2.112 0 0 1-.229.992 1.8 1.8 0 0 1-.61.687 4.235 4.235 0 0 0-.61.458z" class="cls-1" data-name="Path 23" transform="translate(-281.385 -107.029)"/>
            <path id="Path_24" d="M398.936 127.411c0 .076 0 .153-.076.153a.28.28 0 0 1-.229.076h-.61c-.076 0-.153-.076-.229-.076-.076-.076-.076-.076-.076-.153v-1.145a4.228 4.228 0 0 1-1.526 1.145 3.478 3.478 0 0 1-1.755.382 4.129 4.129 0 0 1-1.45-.229 3.57 3.57 0 0 1-1.068-.61 2.324 2.324 0 0 1-.687-.992 3.287 3.287 0 0 1-.229-1.3 3.227 3.227 0 0 1 .381-1.526 3.325 3.325 0 0 1 .992-1.068 5.006 5.006 0 0 1 1.6-.61 8.511 8.511 0 0 1 2.06-.229h1.679v-.916a4.618 4.618 0 0 0-.153-1.145 1.819 1.819 0 0 0-.458-.839 2.273 2.273 0 0 0-.839-.534 2.975 2.975 0 0 0-1.221-.153 5.931 5.931 0 0 0-1.221.153 3.833 3.833 0 0 0-.992.382 2.747 2.747 0 0 0-.687.382 1.29 1.29 0 0 1-.381.153h-.153l-.076-.076c0-.076-.076-.076-.076-.153v-.61a.578.578 0 0 1 .153-.305 1.069 1.069 0 0 1 .534-.305 8.96 8.96 0 0 1 .839-.382c.305-.076.687-.229 1.068-.305a5.405 5.405 0 0 1 1.068-.076 6.677 6.677 0 0 1 1.831.229 2.563 2.563 0 0 1 1.221.763 2.7 2.7 0 0 1 .687 1.221 5.071 5.071 0 0 1 .229 1.6v7.1zm-1.373-4.883h-1.908a7.686 7.686 0 0 0-1.45.153 2.675 2.675 0 0 0-1.068.458 2.473 2.473 0 0 0-.61.687 2.031 2.031 0 0 0-.229.916 1.9 1.9 0 0 0 .534 1.45 2.15 2.15 0 0 0 1.6.534 2.751 2.751 0 0 0 1.526-.458 7.269 7.269 0 0 0 1.526-1.3v-2.442z" class="cls-1" data-name="Path 24" transform="translate(-284.94 -108.641)"/>
            <path id="Path_25" d="M422 120.553a7.418 7.418 0 0 1-.305 2.365 6.719 6.719 0 0 1-.839 1.831 3.266 3.266 0 0 1-1.373 1.145 3.889 3.889 0 0 1-1.908.382 3.716 3.716 0 0 1-.916-.076 2.284 2.284 0 0 1-.763-.305 4.629 4.629 0 0 1-.763-.534 8.373 8.373 0 0 1-.916-.839v1.526l-.076.076c-.076 0-.153.076-.229.076h-.61a.28.28 0 0 1-.229-.076.075.075 0 0 1-.076-.076v-15.795l.076-.076c.076 0 .153-.076.229-.076h.61a.28.28 0 0 1 .229.076.075.075 0 0 1 .076.076v6.638a4.574 4.574 0 0 1 .916-.839 4.34 4.34 0 0 1 1.679-.839 3.131 3.131 0 0 1 .839-.076 3.717 3.717 0 0 1 1.908.458 3.329 3.329 0 0 1 1.3 1.221 6.109 6.109 0 0 1 .763 1.755 4.016 4.016 0 0 1 .378 1.982zm-1.373.229a11.431 11.431 0 0 0-.153-1.679 4.6 4.6 0 0 0-.458-1.45 2.319 2.319 0 0 0-.916-.992 2.635 2.635 0 0 0-1.373-.382 1.255 1.255 0 0 0-.763.153 7.438 7.438 0 0 0-.839.382 3.327 3.327 0 0 0-.839.687 6.636 6.636 0 0 0-.916 1.068v4.5a10.632 10.632 0 0 0 1.679 1.6 2.747 2.747 0 0 0 1.679.534 2.635 2.635 0 0 0 1.373-.382 2.858 2.858 0 0 0 .916-.992 7.338 7.338 0 0 0 .534-1.373c.003-.605.079-1.14.079-1.674z" class="cls-1" data-name="Path 25" transform="translate(-290.153 -107.124)"/>
            <path id="Path_26" d="M435.836 127.411c0 .076 0 .153-.076.153a.28.28 0 0 1-.229.076h-.61c-.076 0-.153-.076-.229-.076-.076-.076-.076-.076-.076-.153v-1.145a4.229 4.229 0 0 1-1.526 1.145 3.478 3.478 0 0 1-1.755.382 4.129 4.129 0 0 1-1.45-.229 3.569 3.569 0 0 1-1.068-.61 2.323 2.323 0 0 1-.687-.992 3.287 3.287 0 0 1-.229-1.3 3.226 3.226 0 0 1 .382-1.526 3.324 3.324 0 0 1 .992-1.068 5.005 5.005 0 0 1 1.6-.61 8.511 8.511 0 0 1 2.06-.229h1.679v-.916a4.619 4.619 0 0 0-.153-1.145 1.818 1.818 0 0 0-.458-.839 2.273 2.273 0 0 0-.839-.534 2.975 2.975 0 0 0-1.221-.153 5.93 5.93 0 0 0-1.221.153 3.833 3.833 0 0 0-.992.382 2.743 2.743 0 0 0-.687.382 1.291 1.291 0 0 1-.382.153h-.153l-.076-.076c0-.076-.076-.076-.076-.153v-.61a.579.579 0 0 1 .153-.305 1.07 1.07 0 0 1 .534-.305 4.09 4.09 0 0 0 .839-.382c.305-.076.687-.229 1.068-.305a5.4 5.4 0 0 1 1.068-.076 6.677 6.677 0 0 1 1.831.229 2.564 2.564 0 0 1 1.221.763 2.7 2.7 0 0 1 .687 1.221 5.071 5.071 0 0 1 .229 1.6v7.1zm-1.373-4.883h-1.908a7.687 7.687 0 0 0-1.45.153 2.675 2.675 0 0 0-1.068.458 2.471 2.471 0 0 0-.61.687 2.032 2.032 0 0 0-.229.916 1.9 1.9 0 0 0 .534 1.45 2.15 2.15 0 0 0 1.6.534 2.751 2.751 0 0 0 1.526-.458 7.269 7.269 0 0 0 1.526-1.3v-2.442zm-3.434 7.935c0-.305.076-.61.229-.687a.919.919 0 1 1 0 1.373q-.23-.113-.23-.686z" class="cls-1" data-name="Path 26" transform="translate(-293.684 -108.641)"/>
            <path id="Path_27" d="M451.664 127.411v.153l-.076.076c-.076 0-.153.076-.229.076h-.61a.28.28 0 0 1-.229-.076.075.075 0 0 1-.076-.076v-6.333a9.525 9.525 0 0 0-.153-1.6 2.674 2.674 0 0 0-.458-1.068 2.165 2.165 0 0 0-.763-.687 2.437 2.437 0 0 0-1.068-.229 2.688 2.688 0 0 0-1.6.534 8.654 8.654 0 0 0-1.679 1.679v7.63l-.076.076c-.076 0-.153.076-.229.076h-.61a.28.28 0 0 1-.229-.076.075.075 0 0 1-.076-.076v-10.685l.076-.076c.076 0 .153-.076.229-.076h.61a.28.28 0 0 1 .229.076.075.075 0 0 1 .076.076v1.6a7.012 7.012 0 0 1 1.755-1.45 3.714 3.714 0 0 1 1.679-.458 4.239 4.239 0 0 1 1.755.382 3.378 3.378 0 0 1 1.145.916 3.771 3.771 0 0 1 .61 1.373 7.149 7.149 0 0 1 .153 1.908v6.333z" class="cls-1" data-name="Path 27" transform="translate(-297.381 -108.641)"/>
        </g>
    </g>
</svg>
