<?xml version="1.0" encoding="utf-8"?>
<!-- Generator: Adobe Illustrator 22.0.1, SVG Export Plug-In . SVG Version: 6.00 Build 0)  -->
<svg version="1.1" id="Layer_1" xmlns="http://www.w3.org/2000/svg" xmlns:xlink="http://www.w3.org/1999/xlink" x="0px" y="0px"
	 viewBox="0 0 110 31" style="enable-background:new 0 0 110 31;" xml:space="preserve">
<style type="text/css">
	.st0{fill:#FFFFFF;}
</style>
<g>
	<path class="st0" d="M21.3,22.4h4.1v0.5h-5.1v-9.1h4.9v0.5h-4v3.7h3.1l0.6,0.5h-3.7V22.4z"/>
	<path class="st0" d="M28.5,22.9v-8.6h-2.2v-0.5h5.3v0.5h-2.2v8.6H28.5z"/>
	<path class="st0" d="M33.2,15v7.9h-0.5v-9.1h0.8l5.1,6.8v-6.8h0.5v9.1L33.2,15z"/>
	<path class="st0" d="M94.3,15.1v7.7h-0.5v-9.1h0.8l5.1,6.9v-6.9h0.5v9.1L94.3,15.1z"/>
	<path class="st0" d="M41.7,20.1l-1.1,2.8h-0.6l3.6-9.1l3.6,9.1h-1l-1.1-2.8H41.7z M41.9,19.7H45l-1.6-4.1L41.9,19.7z"/>
	<path class="st0" d="M48.6,14.8v8.1h-0.5v-9.1h1.1l2.9,7.3l2.9-7.3H56v9.1h-0.9v-8.3l-3.2,8.3L48.6,14.8z"/>
	<path class="st0" d="M63.2,22.9h-2.8v-9.1h2c1.1,0,1.9,0.2,2.5,0.6c0.6,0.4,0.9,1,0.9,1.8c0,0.5-0.1,0.9-0.4,1.3
		c-0.3,0.4-0.7,0.6-1.2,0.6c0.7,0.1,1.2,0.4,1.6,0.8c0.4,0.4,0.6,0.9,0.6,1.5c0,0.8-0.3,1.4-0.8,1.8C65,22.7,64.2,22.9,63.2,22.9z
		 M61.4,14.2v3.7h1.3c0.5,0,0.8,0,1-0.1c0.2,0,0.4-0.1,0.6-0.3c0.2-0.1,0.3-0.4,0.4-0.6c0.1-0.2,0.1-0.5,0.1-0.8
		c0-0.6-0.2-1.1-0.6-1.4c-0.4-0.3-1-0.5-1.8-0.5H61.4z M61.4,18.4v4h1.6c0.8,0,1.4-0.1,1.8-0.4c0.4-0.3,0.6-0.8,0.6-1.4
		c0-0.7-0.2-1.3-0.6-1.6c-0.4-0.4-1.1-0.5-2-0.5C62.6,18.4,61.4,18.4,61.4,18.4z"/>
	<path class="st0" d="M71,22.9c-0.6,0-1.1-0.1-1.6-0.3c-0.5-0.2-1-0.5-1.3-1c-0.4-0.4-0.7-0.9-0.9-1.5c-0.2-0.6-0.3-1.2-0.3-1.8
		s0.1-1.2,0.3-1.8c0.2-0.6,0.5-1.1,0.9-1.5c0.4-0.4,0.8-0.7,1.3-1c0.5-0.2,1-0.3,1.6-0.3c0.6,0,1.1,0.1,1.6,0.3c0.5,0.2,1,0.5,1.3,1
		c0.4,0.4,0.7,0.9,0.9,1.5c0.2,0.6,0.3,1.2,0.3,1.8s-0.1,1.2-0.3,1.8s-0.5,1.1-0.9,1.5c-0.4,0.4-0.9,0.7-1.3,1
		C72.1,22.8,71.6,22.9,71,22.9z M74.2,18.3c0-1.2-0.3-2.3-0.9-3c-0.6-0.8-1.3-1.2-2.3-1.2c-0.9,0-1.7,0.4-2.3,1.2
		c-0.6,0.8-0.9,1.8-0.9,3c0,1.2,0.3,2.3,0.9,3c0.6,0.8,1.3,1.2,2.3,1.2c0.9,0,1.7-0.4,2.3-1.2C73.9,20.6,74.2,19.5,74.2,18.3z"/>
	<path class="st0" d="M80.1,22.9c-0.6,0-1.1-0.1-1.6-0.3c-0.5-0.2-1-0.5-1.3-1c-0.4-0.4-0.7-0.9-0.9-1.5c-0.2-0.6-0.3-1.2-0.3-1.8
		s0.1-1.2,0.3-1.8c0.2-0.6,0.5-1.1,0.9-1.5c0.4-0.4,0.8-0.7,1.3-1c0.5-0.2,1-0.3,1.6-0.3c0.6,0,1.1,0.1,1.6,0.3c0.5,0.2,1,0.5,1.3,1
		c0.4,0.4,0.7,0.9,0.9,1.5c0.2,0.6,0.3,1.2,0.3,1.8s-0.1,1.2-0.3,1.8s-0.5,1.1-0.9,1.5c-0.4,0.4-0.9,0.7-1.3,1
		C81.2,22.8,80.7,22.9,80.1,22.9z M83.3,18.3c0-1.2-0.3-2.3-0.9-3c-0.6-0.8-1.3-1.2-2.3-1.2c-0.9,0-1.7,0.4-2.3,1.2
		c-0.6,0.8-0.9,1.8-0.9,3c0,1.2,0.3,2.3,0.9,3c0.6,0.8,1.3,1.2,2.3,1.2c0.9,0,1.7-0.4,2.3-1.2C83,20.6,83.3,19.5,83.3,18.3z"/>
	<path class="st0" d="M86,22.9h-1v-9.1h1V22.9z M89.6,22.9l-3.3-4.4l3.4-4.7h0.6l-3.1,4.4l3.6,4.7H89.6z"/>
	<path class="st0" d="M19.1,22.9h-0.9v-9.1h0.9V22.9z"/>
	<path class="st0" d="M92.5,22.9h-0.9v-9.1h0.9V22.9z"/>
	<path class="st0" d="M109.1,18v3.5c-0.4,0.4-0.9,0.8-1.4,1c-0.6,0.3-1.2,0.4-1.7,0.4c-0.6,0-1.2-0.1-1.7-0.3c-0.5-0.2-1-0.5-1.4-1
		c-0.4-0.4-0.7-0.9-0.9-1.5c-0.2-0.6-0.3-1.2-0.3-1.9c0-0.6,0.1-1.2,0.3-1.7c0.2-0.6,0.5-1,0.9-1.4c0.4-0.4,0.8-0.8,1.4-1
		c0.5-0.2,1.1-0.3,1.7-0.3c0.7,0,1.4,0.2,1.9,0.5c0.5,0.3,1,0.8,1.2,1.4l-0.4,0.2c-0.3-0.6-0.6-1-1-1.3s-0.9-0.4-1.5-0.4
		c-1,0-1.8,0.4-2.4,1.1c-0.6,0.7-0.9,1.7-0.9,2.9c0,1.3,0.3,2.4,0.9,3.1c0.6,0.8,1.4,1.2,2.4,1.2c0.5,0,0.9-0.1,1.3-0.3
		c0.4-0.2,0.7-0.4,0.9-0.8v-2.4L109.1,18z"/>
	<path class="st0" d="M17.3,22.9c-0.6,0-1,0-1.6-0.1c-0.4-0.1-0.8-0.3-1-0.7c-0.3-0.4-0.6-0.8-0.7-1.3c-1.2-2.9-2.3-5.8-3.6-8.6
		C9.7,10.8,9,9.3,8.3,7.9c-1-1.9-2.4-3.4-4-4.8c-1.2-1-2.4-1.8-3.6-2.6c-1.6-1,0.2-0.4,2.7,1.2C5.1,3,6.8,4.3,8.4,5.7
		c1.8,1.6,3.1,3.6,4.1,5.7c0.8,1.8,1.6,3.7,2.4,5.6C15.6,18.9,17,22.1,17.3,22.9z"/>
	<path class="st0" d="M19.1,30.3c0,0-0.2,0-0.6,0.2c-0.2,0-0.4,0.1-0.7,0.2c-0.3,0-0.6,0.1-1,0.1c-0.1,0-0.2,0-0.3,0c0,0,0,0-0.1,0
		h-0.1c0,0-0.1,0-0.1,0c-0.2,0-0.4,0-0.6,0c-0.4,0-0.9,0-1.5-0.1c-0.3,0-0.5-0.1-0.8-0.1c-0.3,0-0.6-0.1-0.9-0.2
		c-0.6-0.2-1.2-0.3-1.8-0.6c-1.2-0.5-2.5-1.2-3.6-2.3c-1.1-1-2.2-2.3-2.9-3.8c-0.7-1.5-1.2-3.2-1.3-5l0-0.7l0-0.7l0-0.6
		c0-0.2,0-0.5,0.1-0.7l0.1-0.7c0-0.2,0.1-0.5,0.2-0.7L3.4,14c0.1-0.2,0.1-0.4,0.2-0.6c0.6-1.7,1.6-3.3,2.8-4.6
		c1.2-1.3,2.7-2.3,4.2-3s3.2-1,4.7-1.1c0.2,0,0.4,0,0.6,0h0.3h0.1h0.1h0.1h0c0.4,0,0.7,0,1.1,0.1c0.7,0.1,1.4,0.3,2,0.4
		c1.3,0.4,2.4,0.9,3.2,1.5c0.9,0.6,1.6,1.2,2.1,1.8c0.5,0.5,0.8,1,1.1,1.3c0.2,0.3,0.3,0.5,0.3,0.5l-0.1,0.1c0,0-0.1-0.2-0.4-0.5
		c-0.3-0.3-0.6-0.7-1.2-1.2c-0.5-0.5-1.2-1-2.1-1.5c-0.9-0.5-1.9-0.9-3.1-1.2c-0.6-0.1-1.2-0.3-1.9-0.3c-0.3,0-0.7,0-1,0
		c-0.3,0-0.7,0-1,0c-1.4,0.1-2.9,0.5-4.2,1.2C9.9,7.6,8.6,8.5,7.5,9.7c-1.1,1.2-2,2.6-2.5,4.1c-0.1,0.2-0.1,0.4-0.2,0.6L4.6,15
		c0,0.2-0.1,0.4-0.1,0.6l-0.1,0.6c0,0.2-0.1,0.4-0.1,0.6l0,0.6l0,0.6l0,0.6c0.1,1.6,0.5,3.2,1.1,4.6c0.6,1.4,1.5,2.6,2.5,3.6
		c1,1,2.1,1.8,3.2,2.3c0.6,0.3,1.1,0.5,1.6,0.7c0.3,0.1,0.5,0.1,0.8,0.2s0.5,0.1,0.7,0.2c0.5,0.1,1,0.2,1.4,0.2c0.4,0,0.8,0.1,1.2,0
		c0.4,0,0.7,0,1,0c0.3,0,0.5-0.1,0.7-0.1c0.4,0,0.6-0.1,0.6-0.1L19.1,30.3z"/>
</g>
</svg>
